<?xml version="1.0" ?><!DOCTYPE svg  PUBLIC '-//W3C//DTD SVG 1.1//EN'  'http://www.w3.org/Graphics/SVG/1.1/DTD/svg11.dtd'><svg enable-background="new 0 0 512 512" height="512px" id="Discussion" version="1.1" viewBox="0 0 512 512" width="512px" xml:space="preserve" xmlns="http://www.w3.org/2000/svg" xmlns:xlink="http://www.w3.org/1999/xlink"><path d="M233.319,293.742c0-46.93,57.468-84.974,128.357-84.974c70.891,0,128.359,38.044,128.359,84.974  c0,39.963-41.676,73.477-97.82,82.549V410.5l-50.729-32.832C280.189,371.255,233.319,336.125,233.319,293.742z" fill="#3F5EAB"/><linearGradient gradientUnits="userSpaceOnUse" id="SVGID_1_" x1="100.6709" x2="336.4843" y1="349.5635" y2="113.7501"><stop offset="0" style="stop-color:#00FFFF"/><stop offset="1" style="stop-color:#FF7BAC"/></linearGradient><path d="M415.188,231.658c0-71.885-88.025-130.158-196.611-130.158  c-108.585,0-196.611,58.273-196.611,130.158c0,61.212,63.834,112.546,149.834,126.441v52.4l77.705-50.291  C343.395,350.387,415.188,296.576,415.188,231.658z" fill="url(#SVGID_1_)"/><circle cx="218.577" cy="231.658" fill="#FFFFFF" r="22.89"/><circle cx="123.97" cy="231.658" fill="#FFFFFF" r="22.89"/><circle cx="313.183" cy="231.658" fill="#FFFFFF" r="22.89"/></svg>